<svg xmlns="http://www.w3.org/2000/svg" width="195.1" height="28.538" viewBox="0 0 195.1 28.538"><path d="M117.56,28.538h-.075a4.677,4.677,0,0,1-1.925-.41,3.217,3.217,0,0,1-1.38-1.19,3.546,3.546,0,0,1,.18-3.84,4.235,4.235,0,0,1,2-1.4,5.017,5.017,0,0,1-.74-1.121,2.744,2.744,0,0,1-.22-1.12,2.359,2.359,0,0,1,.36-1.28,2.4,2.4,0,0,1,1-.88,3.5,3.5,0,0,1,1.462-.322l.088,0,.078,0a3.279,3.279,0,0,1,1.432.332,2.344,2.344,0,0,1,1,.94,2.591,2.591,0,0,1,.29,1.33h-1.46a1.324,1.324,0,0,0-.37-1,1.345,1.345,0,0,0-.931-.372c-.023,0-.047,0-.069,0h-.043a1.449,1.449,0,0,0-.957.361,1.191,1.191,0,0,0-.39.92,1.7,1.7,0,0,0,.26.92,6.692,6.692,0,0,0,.89,1.111l3.32,3.34.29-.45,1.09-1.82h1.57L123,24.858c-.17.3-.385.637-.64,1l2.51,2.51-2.05-.02-1.46-1.471a5.649,5.649,0,0,1-1.7,1.26,5.209,5.209,0,0,1-2.009.4Zm-2.489-3.4a2,2,0,0,0,.679,1.57,2.514,2.514,0,0,0,1.666.632l.1,0a3.584,3.584,0,0,0,1.56-.38,4.281,4.281,0,0,0,1.32-1l-3.28-3.3C115.741,23.19,115.07,24,115.07,25.138Zm44.47,3.36h-.034a3.98,3.98,0,0,1-3.566-2.2,5,5,0,0,1-.54-2.36,4.929,4.929,0,0,1,.55-2.36,3.874,3.874,0,0,1,1.5-1.58,4.122,4.122,0,0,1,2.075-.56h.13a3.925,3.925,0,0,1,1.915.5,3.351,3.351,0,0,1,1.26,1.239v-1.6h1.47v8.77h-1.47v-1.63a3.434,3.434,0,0,1-1.291,1.27,3.811,3.811,0,0,1-1.907.511Zm.284-7.84a2.913,2.913,0,0,0-1.454.39,2.769,2.769,0,0,0-1.08,1.12,3.654,3.654,0,0,0-.4,1.731,3.729,3.729,0,0,0,.4,1.75,2.867,2.867,0,0,0,1.08,1.13,3,3,0,0,0,3,0,2.878,2.878,0,0,0,1.06-1.121,3.618,3.618,0,0,0,.4-1.74,3.546,3.546,0,0,0-.4-1.7,2.887,2.887,0,0,0-2.57-1.56Zm16.6,7.839h-.058a4.535,4.535,0,0,1-2.182-.561,3.989,3.989,0,0,1-1.56-1.6,4.837,4.837,0,0,1-.571-2.389,4.709,4.709,0,0,1,.58-2.37,4.046,4.046,0,0,1,1.59-1.59,4.919,4.919,0,0,1,4.52,0,4.081,4.081,0,0,1,1.589,1.58,4.725,4.725,0,0,1,.58,2.381,4.629,4.629,0,0,1-.6,2.389,4.206,4.206,0,0,1-1.62,1.6,4.725,4.725,0,0,1-2.227.561Zm-.008-1.279a3.151,3.151,0,0,0,1.478-.371A2.747,2.747,0,0,0,179,25.737a3.536,3.536,0,0,0,.419-1.79,3.679,3.679,0,0,0-.41-1.79,2.75,2.75,0,0,0-1.09-1.1,3.142,3.142,0,0,0-2.921,0,2.624,2.624,0,0,0-1.06,1.1,3.682,3.682,0,0,0-.4,1.79,3.831,3.831,0,0,0,.39,1.81,2.59,2.59,0,0,0,1,1.1,2.906,2.906,0,0,0,1.4.361h.084Zm15.478,1.27a4.487,4.487,0,0,1-1.79-.34,3,3,0,0,1-1.27-1,2.527,2.527,0,0,1-.51-1.41h1.5a1.511,1.511,0,0,0,.62,1.07,2.335,2.335,0,0,0,1.45.41,2.148,2.148,0,0,0,1.31-.36,1.143,1.143,0,0,0,.48-.931.919.919,0,0,0-.51-.859,7.418,7.418,0,0,0-1.589-.55,11.056,11.056,0,0,1-1.59-.52,2.9,2.9,0,0,1-1.05-.78,2.22,2.22,0,0,1,0-2.6,2.621,2.621,0,0,1,1.13-.89,4.064,4.064,0,0,1,1.68-.329,3.57,3.57,0,0,1,2.35.74,2.632,2.632,0,0,1,1,2h-1.45a1.511,1.511,0,0,0-.55-1.1,2.066,2.066,0,0,0-1.44-.38,2,2,0,0,0-1.24.339,1.052,1.052,0,0,0-.19,1.59,1.989,1.989,0,0,0,.71.45,10.385,10.385,0,0,0,1.17.37,13.834,13.834,0,0,1,1.54.51,2.623,2.623,0,0,1,1,.74,2,2,0,0,1,.44,1.3,2.17,2.17,0,0,1-.4,1.29,2.608,2.608,0,0,1-1.12.91,4.082,4.082,0,0,1-1.61.331Zm-57.81-.021a4.4,4.4,0,0,1-2.22-.56,3.938,3.938,0,0,1-1.51-1.589,5.068,5.068,0,0,1-.54-2.4,5,5,0,0,1,.54-2.34A3.91,3.91,0,0,1,131.86,20a4.413,4.413,0,0,1,2.22-.56,4.327,4.327,0,0,1,2.66.78,3.761,3.761,0,0,1,1.391,2.18h-1.57a2.27,2.27,0,0,0-.869-1.26,2.694,2.694,0,0,0-1.61-.47,2.606,2.606,0,0,0-2,.859,3.512,3.512,0,0,0-.77,2.42,3.581,3.581,0,0,0,.77,2.45,2.57,2.57,0,0,0,2,.86,2.725,2.725,0,0,0,1.6-.44,2.278,2.278,0,0,0,.879-1.28h1.57a3.932,3.932,0,0,1-1.41,2.12,4.19,4.19,0,0,1-2.48.813Q134.16,28.47,134.08,28.467Zm15.75-.02h-.062a4.5,4.5,0,0,1-2.168-.561,3.992,3.992,0,0,1-1.54-1.6,4.84,4.84,0,0,1-.56-2.39,5,5,0,0,1,.54-2.38,3.8,3.8,0,0,1,1.53-1.58,4.518,4.518,0,0,1,2.157-.551h.2a4.432,4.432,0,0,1,2.118.541,3.891,3.891,0,0,1,1.48,1.5,4.412,4.412,0,0,1,.52,2.15,6.914,6.914,0,0,1-.06.93h-7a2.767,2.767,0,0,0,.841,1.981,2.739,2.739,0,0,0,1.91.771c.033,0,.067,0,.1,0l.114,0a2.646,2.646,0,0,0,1.466-.443,2.32,2.32,0,0,0,.889-1.17h1.57a3.8,3.8,0,0,1-1.41,2,4.23,4.23,0,0,1-2.488.8Zm-1.95-7.07a2.867,2.867,0,0,0-.89,2h5.54a2.712,2.712,0,0,0-.37-1.48,2.469,2.469,0,0,0-1-.92,3.243,3.243,0,0,0-1.377-.31h-.08A2.692,2.692,0,0,0,147.88,21.377Zm19.82,6.411a2.37,2.37,0,0,1-.609-1.84v-5.17h-1.14v-1.2h1.14v-2.2h1.45v2.2h2.29v1.2h-2.29v5.17a1.251,1.251,0,0,0,.27.911,1.4,1.4,0,0,0,.95.259h1.07v1.23h-1.31q-.106.009-.211.009A2.56,2.56,0,0,1,167.7,27.788Zm15.13.56v-8.77h1.461v1.43a2.79,2.79,0,0,1,1.09-1.17,3.394,3.394,0,0,1,1.74-.42v1.51h-.38c-1.64,0-2.45.879-2.45,2.65v4.77Zm-42.77,0v-8.77h1.46v1.43a2.818,2.818,0,0,1,1.14-1.17,3.321,3.321,0,0,1,1.73-.42v1.51h-.38c-1.63,0-2.45.879-2.45,2.65v4.77Zm-48.64,0V13.728s-.07-.661-.38,0l-5,14.559v.06H79.4v-.06l-5-14.559c-.32-.661-.391,0-.391,0v14.62H66.13V.007H73.66a2.688,2.688,0,0,1,2.58,1.52l6,15.521s.19.48.43.45.429-.45.429-.45l6-15.521A2.791,2.791,0,0,1,91.74.007h7.57v28.34Zm-45.77,0v-9L35.67.007h9.01L49.67,10.938l3.9,8.41-2.5-11.49L54.65.007h8.89l-9.97,19.34v9Zm-20.4,0V13.728s-.08-.661-.391,0l-5,14.559v.06H13.27v-.06l-5-14.559c-.311-.661-.39,0-.39,0v14.62H0V.007H7.47a2.791,2.791,0,0,1,2.64,1.52l6,15.521s.19.48.43.45.43-.45.43-.45l6-15.521A2.791,2.791,0,0,1,25.66.007h7.47v28.34ZM148.9,12.5h-.026a3.981,3.981,0,0,1-3.574-2.2,5.012,5.012,0,0,1-.54-2.36,4.941,4.941,0,0,1,.5-2.36,3.941,3.941,0,0,1,1.5-1.58,4.133,4.133,0,0,1,2.075-.56h.13a3.919,3.919,0,0,1,1.914.5,3.263,3.263,0,0,1,1.26,1.239v-1.6h1.52v8.77h-1.48v-1.63a3.314,3.314,0,0,1-1.281,1.27,3.862,3.862,0,0,1-1.92.511ZM147.68,5.087a2.691,2.691,0,0,0-1.021,1.121,3.546,3.546,0,0,0-.4,1.73,3.636,3.636,0,0,0,.4,1.72,2.79,2.79,0,0,0,1,1.16,3,3,0,0,0,3,0,2.721,2.721,0,0,0,1.08-1.16,3.6,3.6,0,0,0,.4-1.74,3.55,3.55,0,0,0-.4-1.7A2.711,2.711,0,0,0,150.66,5.1a2.86,2.86,0,0,0-1.456-.4h-.069A2.918,2.918,0,0,0,147.68,5.087ZM123.34,12.5h-.047a4.548,4.548,0,0,1-2.183-.56,4,4,0,0,1-1.57-1.6,4.842,4.842,0,0,1-.571-2.39,4.728,4.728,0,0,1,.59-2.371,4.038,4.038,0,0,1,1.59-1.589,4.891,4.891,0,0,1,4.51,0,3.982,3.982,0,0,1,1.589,1.579,4.72,4.72,0,0,1,.59,2.381,4.634,4.634,0,0,1-.6,2.39,4.206,4.206,0,0,1-1.62,1.6,4.717,4.717,0,0,1-2.226.56Zm-1.41-7.439a2.632,2.632,0,0,0-1.07,1.1,3.819,3.819,0,0,0-.4,1.79,3.728,3.728,0,0,0,.4,1.81,2.648,2.648,0,0,0,1,1.1,3.016,3.016,0,0,0,1.425.36h.063a3.086,3.086,0,0,0,1.462-.37,2.833,2.833,0,0,0,1.12-1.11,3.541,3.541,0,0,0,.419-1.79,3.666,3.666,0,0,0-.41-1.79,2.79,2.79,0,0,0-1.09-1.1,3.052,3.052,0,0,0-1.437-.36h-.059A3.006,3.006,0,0,0,121.929,5.058Zm45.731,7.089a3,3,0,0,1-1.27-1,2.521,2.521,0,0,1-.51-1.41h1.5a1.48,1.48,0,0,0,.62,1.07,2.328,2.328,0,0,0,1.45.41,2.139,2.139,0,0,0,1.309-.36,1.141,1.141,0,0,0,.481-.931.92.92,0,0,0-.51-.859,7.426,7.426,0,0,0-1.59-.55A11.082,11.082,0,0,1,167.55,8a2.88,2.88,0,0,1-1-.78,1.993,1.993,0,0,1-.44-1.37,2.087,2.087,0,0,1,.39-1.23,2.706,2.706,0,0,1,1.14-.889,4.049,4.049,0,0,1,1.679-.33,3.567,3.567,0,0,1,2.35.74,2.632,2.632,0,0,1,1,2H171.22a1.547,1.547,0,0,0-.55-1.1,2.07,2.07,0,0,0-1.36-.42,2,2,0,0,0-1.24.34,1.052,1.052,0,0,0-.19,1.59,2,2,0,0,0,.71.45,10.442,10.442,0,0,0,1.17.37,13.591,13.591,0,0,1,1.54.51,2.623,2.623,0,0,1,1,.74,1.993,1.993,0,0,1,.44,1.3,2.172,2.172,0,0,1-.4,1.291,2.579,2.579,0,0,1-1.13.91,3.989,3.989,0,0,1-1.669.329q-.126.007-.252.007A4.466,4.466,0,0,1,167.66,12.147Zm-5.16.2v-5a2.831,2.831,0,0,0-.661-2,2.368,2.368,0,0,0-1.79-.69,2.429,2.429,0,0,0-1.84.72,3,3,0,0,0-.671,2.09v4.85h-1.46V3.578h1.46v1.25a2.814,2.814,0,0,1,1.17-1,3.726,3.726,0,0,1,1.641-.37,3.556,3.556,0,0,1,2.589.93,3.748,3.748,0,0,1,1,2.79v5.17Zm-22.23,0V4.777h-1.14v-1.2h1.14v-.62a2.73,2.73,0,0,1,.76-2.15,3.63,3.63,0,0,1,2.44-.68v1.21a1.931,1.931,0,0,0-1.35.38,1.658,1.658,0,0,0-.39,1.24v.62h1.84v1.2h-1.84v7.57Zm-10.51,0V3.578h1.45v1.43a2.887,2.887,0,0,1,1.1-1.17,3.376,3.376,0,0,1,1.74-.42v1.51h-.39c-1.63,0-2.45.88-2.45,2.65v4.77Zm-15.23,0V4.777h-1.14v-1.2h1.14v-.62a2.727,2.727,0,0,1,.76-2.15,3.61,3.61,0,0,1,2.44-.68v1.21a2,2,0,0,0-1.36.38,1.658,1.658,0,0,0-.39,1.24v.62h1.84v1.2h-1.84v7.57Z" transform="translate(0 0)" fill="#fff"/></svg>